<?xml version="1.0" encoding="UTF-8"?>
<!DOCTYPE svg PUBLIC "-//W3C//DTD SVG 1.1//EN" "http://www.w3.org/Graphics/SVG/1.1/DTD/svg11.dtd">
<svg xmlns="http://www.w3.org/2000/svg" version="1.1" width="128px" height="128px" style="shape-rendering:geometricPrecision; text-rendering:geometricPrecision; image-rendering:optimizeQuality; fill-rule:evenodd; clip-rule:evenodd" xmlns:xlink="http://www.w3.org/1999/xlink">
<g><path style="opacity:1" fill="#fbfbfb" d="M -0.5,-0.5 C 42.1667,-0.5 84.8333,-0.5 127.5,-0.5C 127.5,42.1667 127.5,84.8333 127.5,127.5C 113.5,127.5 99.5,127.5 85.5,127.5C 85.17,120.8 85.5033,114.134 86.5,107.5C 100.487,99.5094 108.487,87.5094 110.5,71.5C 111.404,70.791 111.737,69.791 111.5,68.5C 112.461,66.7354 112.795,64.7354 112.5,62.5C 114.532,59.2811 115.365,55.9478 115,52.5C 116.643,50.0232 118.476,47.6898 120.5,45.5C 118.96,44.4679 118.46,43.1346 119,41.5C 120.697,39.301 122.197,36.9676 123.5,34.5C 121.827,32.9137 119.827,32.2471 117.5,32.5C 117.351,31.448 117.517,30.448 118,29.5C 120.994,26.1801 123.494,22.5134 125.5,18.5C 121.166,16.04 116.499,15.04 111.5,15.5C 111.158,14.6618 110.492,14.3284 109.5,14.5C 99.4414,12.4856 89.4414,10.1523 79.5,7.5C 63.4955,3.98703 47.8288,5.48703 32.5,12C 21.5094,13.0231 10.5094,13.8565 -0.5,14.5C -0.5,9.5 -0.5,4.5 -0.5,-0.5 Z"/></g>
<g><path style="opacity:1" fill="#302b30" d="M 79.5,7.5 C 89.4414,10.1523 99.4414,12.4856 109.5,14.5C 106.332,15.4435 102.999,15.4435 99.5,14.5C 99.6567,15.8734 99.49,17.2068 99,18.5C 95.1147,22.5197 90.948,26.1864 86.5,29.5C 86.1667,29.1667 85.8333,28.8333 85.5,28.5C 86.9053,26.3491 88.7386,24.6824 91,23.5C 92.3034,21.0602 93.47,18.5602 94.5,16C 94.2409,14.7387 93.5742,13.7387 92.5,13C 87.4528,11.3297 82.4528,9.66303 77.5,8C 78.0944,7.53566 78.7611,7.36899 79.5,7.5 Z"/></g>
<g><path style="opacity:1" fill="#f0ecef" d="M -0.5,23.5 C 11.1342,26.2731 11.1342,27.9397 -0.5,28.5C -0.5,26.8333 -0.5,25.1667 -0.5,23.5 Z"/></g>
<g><path style="opacity:1" fill="#463f46" d="M 79.5,7.5 C 78.7611,7.36899 78.0944,7.53566 77.5,8C 82.4528,9.66303 87.4528,11.3297 92.5,13C 93.5742,13.7387 94.2409,14.7387 94.5,16C 93.47,18.5602 92.3034,21.0602 91,23.5C 88.7386,24.6824 86.9053,26.3491 85.5,28.5C 85.8333,28.8333 86.1667,29.1667 86.5,29.5C 90.948,26.1864 95.1147,22.5197 99,18.5C 99.49,17.2068 99.6567,15.8734 99.5,14.5C 102.999,15.4435 106.332,15.4435 109.5,14.5C 110.492,14.3284 111.158,14.6618 111.5,15.5C 114.499,17.8419 117.832,18.6752 121.5,18C 120.833,19 120.167,20 119.5,21C 109.317,26.6333 98.9834,31.8 88.5,36.5C 88.8333,36.8333 89.1667,37.1667 89.5,37.5C 96.3551,33.5796 103.688,32.2463 111.5,33.5C 105.774,35.4136 100.107,37.0802 94.5,38.5C 91.3344,40.4102 88.3344,40.4102 85.5,38.5C 81.5,39.8333 77.5,41.1667 73.5,42.5C 67.8611,40.5083 62.1944,39.0083 56.5,38C 57.3279,38.9147 58.3279,39.5814 59.5,40C 57.4233,40.1922 55.4233,40.6922 53.5,41.5C 50.9487,47.5851 49.2821,53.9184 48.5,60.5C 46.8875,53.2602 46.2208,45.9268 46.5,38.5C 47.913,35.7814 48.5797,32.7814 48.5,29.5C 32.8263,23.4291 16.493,19.7625 -0.5,18.5C -0.5,17.1667 -0.5,15.8333 -0.5,14.5C 10.5094,13.8565 21.5094,13.0231 32.5,12C 47.8288,5.48703 63.4955,3.98703 79.5,7.5 Z"/></g>
<g><path style="opacity:1" fill="#2a2528" d="M 111.5,15.5 C 116.499,15.04 121.166,16.04 125.5,18.5C 123.494,22.5134 120.994,26.1801 118,29.5C 117.517,30.448 117.351,31.448 117.5,32.5C 119.827,32.2471 121.827,32.9137 123.5,34.5C 122.197,36.9676 120.697,39.301 119,41.5C 118.46,43.1346 118.96,44.4679 120.5,45.5C 118.476,47.6898 116.643,50.0232 115,52.5C 115.365,55.9478 114.532,59.2811 112.5,62.5C 110.5,62.5 108.5,62.5 106.5,62.5C 106.665,58.8183 106.499,55.1516 106,51.5C 103.667,47.5 101.333,43.5 99,39.5C 97.6439,38.6198 96.1439,38.2865 94.5,38.5C 100.107,37.0802 105.774,35.4136 111.5,33.5C 103.688,32.2463 96.3551,33.5796 89.5,37.5C 89.1667,37.1667 88.8333,36.8333 88.5,36.5C 98.9834,31.8 109.317,26.6333 119.5,21C 120.167,20 120.833,19 121.5,18C 117.832,18.6752 114.499,17.8419 111.5,15.5 Z"/></g>
<g><path style="opacity:1" fill="#ebe8eb" d="M -0.5,35.5 C 3.17122,37.3356 6.83789,39.1689 10.5,41C 6.85457,41.7189 3.18791,42.2189 -0.5,42.5C -0.5,40.1667 -0.5,37.8333 -0.5,35.5 Z"/></g>
<g><path style="opacity:1" fill="#f8f8f8" d="M 94.5,38.5 C 96.1439,38.2865 97.6439,38.6198 99,39.5C 101.333,43.5 103.667,47.5 106,51.5C 106.499,55.1516 106.665,58.8183 106.5,62.5C 82.1667,62.5 57.8333,62.5 33.5,62.5C 34.7201,60.3367 34.7201,58.17 33.5,56C 35.6711,52.4767 36.8377,48.6434 37,44.5C 39.2277,43.1085 40.3944,41.1085 40.5,38.5C 42.5,38.5 44.5,38.5 46.5,38.5C 46.2208,45.9268 46.8875,53.2602 48.5,60.5C 49.2821,53.9184 50.9487,47.5851 53.5,41.5C 55.4233,40.6922 57.4233,40.1922 59.5,40C 58.3279,39.5814 57.3279,38.9147 56.5,38C 62.1944,39.0083 67.8611,40.5083 73.5,42.5C 77.5,41.1667 81.5,39.8333 85.5,38.5C 88.3344,40.4102 91.3344,40.4102 94.5,38.5 Z"/></g>
<g><path style="opacity:1" fill="#2a2529" d="M -0.5,18.5 C 16.493,19.7625 32.8263,23.4291 48.5,29.5C 48.5797,32.7814 47.913,35.7814 46.5,38.5C 44.5,38.5 42.5,38.5 40.5,38.5C 40.3944,41.1085 39.2277,43.1085 37,44.5C 36.8377,48.6434 35.6711,52.4767 33.5,56C 34.7201,58.17 34.7201,60.3367 33.5,62.5C 28.456,62.1725 23.456,62.5059 18.5,63.5C 20.9688,64.1681 23.3021,64.8347 25.5,65.5C 23.1667,65.5 20.8333,65.5 18.5,65.5C 18.5,66.8333 18.5,68.1667 18.5,69.5C 17.209,69.2627 16.209,69.596 15.5,70.5C 13.5707,68.8518 11.5707,67.1851 9.5,65.5C 10.5,64.6667 11.5,63.8333 12.5,63C 9.16667,60.3333 5.83333,57.6667 2.5,55C 4.8947,54.3187 7.22803,53.4853 9.5,52.5C 6.69111,49.7622 3.35777,48.0956 -0.5,47.5C -0.5,45.8333 -0.5,44.1667 -0.5,42.5C 3.18791,42.2189 6.85457,41.7189 10.5,41C 6.83789,39.1689 3.17122,37.3356 -0.5,35.5C -0.5,33.1667 -0.5,30.8333 -0.5,28.5C 11.1342,27.9397 11.1342,26.2731 -0.5,23.5C -0.5,21.8333 -0.5,20.1667 -0.5,18.5 Z"/></g>
<g><path style="opacity:1" fill="#433e42" d="M 19.5,39.5 C 25.5368,39.1707 31.5368,39.5041 37.5,40.5C 34.8505,42.9638 31.6839,44.2971 28,44.5C 22.5174,43.9202 17.3508,43.2535 12.5,42.5C 14.875,41.3395 17.2083,40.3395 19.5,39.5 Z"/></g>
<g><path style="opacity:1" fill="#453d44" d="M 14.5,28.5 C 23.5326,28.3941 32.5326,28.8941 41.5,30C 43.5,31 45.5,32 47.5,33C 46.6634,34.0113 46.33,35.1779 46.5,36.5C 34.4988,34.3329 22.4988,32.1663 10.5,30C 12.0581,29.79 13.3915,29.29 14.5,28.5 Z"/></g>
<g><path style="opacity:1" fill="#fbfbfb" d="M -0.5,47.5 C 3.35777,48.0956 6.69111,49.7622 9.5,52.5C 7.22803,53.4853 4.8947,54.3187 2.5,55C 5.83333,57.6667 9.16667,60.3333 12.5,63C 11.5,63.8333 10.5,64.6667 9.5,65.5C 11.5707,67.1851 13.5707,68.8518 15.5,70.5C 17.2173,85.9351 24.5506,97.9351 37.5,106.5C 37.8333,107.667 38.1667,108.833 38.5,110C 37.5042,115.803 36.8375,121.636 36.5,127.5C 24.1667,127.5 11.8333,127.5 -0.5,127.5C -0.5,100.833 -0.5,74.1667 -0.5,47.5 Z"/></g>
<g><path style="opacity:1" fill="#0b0b0b" d="M 33.5,62.5 C 57.8333,62.5 82.1667,62.5 106.5,62.5C 108.5,62.5 110.5,62.5 112.5,62.5C 112.795,64.7354 112.461,66.7354 111.5,68.5C 108.809,70.2044 106.142,71.871 103.5,73.5C 103.5,74.5 103.5,75.5 103.5,76.5C 101.901,76.7678 100.568,76.4345 99.5,75.5C 99.5,74.5 99.5,73.5 99.5,72.5C 98.5,72.5 97.5,72.5 96.5,72.5C 96.5,73.5 96.5,74.5 96.5,75.5C 92.3656,76.4849 88.0323,76.8182 83.5,76.5C 83.1788,74.9519 82.1788,74.2852 80.5,74.5C 80.5,73.5 80.5,72.5 80.5,71.5C 79.5,71.5 78.5,71.5 77.5,71.5C 77.5,69.5 77.5,67.5 77.5,65.5C 75.5,65.5 73.5,65.5 71.5,65.5C 71.5,67.5 71.5,69.5 71.5,71.5C 70.5,71.5 69.5,71.5 68.5,71.5C 68.5,72.5 68.5,73.5 68.5,74.5C 66.8212,74.2852 65.8212,74.9519 65.5,76.5C 58.2192,77.0713 51.2192,76.4047 44.5,74.5C 43.5,74.5 42.5,74.5 41.5,74.5C 41.5,73.5 41.5,72.5 41.5,71.5C 40.5,71.5 39.5,71.5 38.5,71.5C 38.5,70.5 38.5,69.5 38.5,68.5C 37.5,68.5 36.5,68.5 35.5,68.5C 35.5,67.5 35.5,66.5 35.5,65.5C 32.3188,64.4095 28.9855,64.4095 25.5,65.5C 23.3021,64.8347 20.9688,64.1681 18.5,63.5C 23.456,62.5059 28.456,62.1725 33.5,62.5 Z"/></g>
<g><path style="opacity:1" fill="#f9f9f9" d="M 25.5,65.5 C 27.9569,71.6522 29.9569,77.9855 31.5,84.5C 31.7498,78.2489 31.7498,71.9156 31.5,65.5C 32.8333,65.5 34.1667,65.5 35.5,65.5C 35.5,66.5 35.5,67.5 35.5,68.5C 36.5,68.5 37.5,68.5 38.5,68.5C 38.5,69.5 38.5,70.5 38.5,71.5C 39.5,71.5 40.5,71.5 41.5,71.5C 41.5,72.5 41.5,73.5 41.5,74.5C 42.5,74.5 43.5,74.5 44.5,74.5C 44.5,75.5 44.5,76.5 44.5,77.5C 51.6866,77.8245 58.6866,77.4912 65.5,76.5C 65.8212,74.9519 66.8212,74.2852 68.5,74.5C 68.5,73.5 68.5,72.5 68.5,71.5C 69.5,71.5 70.5,71.5 71.5,71.5C 71.5,69.5 71.5,67.5 71.5,65.5C 73.5,65.5 75.5,65.5 77.5,65.5C 77.5,67.5 77.5,69.5 77.5,71.5C 78.5,71.5 79.5,71.5 80.5,71.5C 80.5,72.5 80.5,73.5 80.5,74.5C 82.1788,74.2852 83.1788,74.9519 83.5,76.5C 90.3134,77.4912 97.3134,77.8245 104.5,77.5C 104.281,76.325 104.614,75.325 105.5,74.5C 105.833,75 106.167,75.5 106.5,76C 105.852,77.4397 105.519,78.9397 105.5,80.5C 96.3619,101.246 80.3619,111.08 57.5,110C 35.1709,105.504 22.1709,92.0039 18.5,69.5C 18.5,68.1667 18.5,66.8333 18.5,65.5C 20.8333,65.5 23.1667,65.5 25.5,65.5 Z"/></g>
<g><path style="opacity:1" fill="#454343" d="M 35.5,65.5 C 34.1667,65.5 32.8333,65.5 31.5,65.5C 31.7498,71.9156 31.7498,78.2489 31.5,84.5C 29.9569,77.9855 27.9569,71.6522 25.5,65.5C 28.9855,64.4095 32.3188,64.4095 35.5,65.5 Z"/></g>
<g><path style="opacity:1" fill="#b9b9b9" d="M 59.5,64.5 C 60.5,64.5 61.5,64.5 62.5,64.5C 62.5,65.5 62.5,66.5 62.5,67.5C 60.5,68.1667 58.5,68.8333 56.5,69.5C 56.5,68.5 56.5,67.5 56.5,66.5C 58.1788,66.7148 59.1788,66.0481 59.5,64.5 Z"/></g>
<g><path style="opacity:1" fill="#adadad" d="M 60.5,72.5 C 60.5,71.5 60.5,70.5 60.5,69.5C 63.3037,67.5954 66.3037,65.9287 69.5,64.5C 68.3828,69.2202 65.3828,71.8868 60.5,72.5 Z"/></g>
<g><path style="opacity:1" fill="#a0a0a0" d="M 99.5,64.5 C 100.497,64.4701 101.164,64.9701 101.5,66C 100.571,67.0769 99.9038,68.2436 99.5,69.5C 98.2921,70.2341 96.9587,70.5674 95.5,70.5C 95.5,69.1667 95.5,67.8333 95.5,66.5C 97.1993,66.4729 98.5326,65.8062 99.5,64.5 Z"/></g>
<g><path style="opacity:1" fill="#4f4f4f" d="M 99.5,64.5 C 100.209,63.596 101.209,63.2627 102.5,63.5C 102.5,64.5 102.5,65.5 102.5,66.5C 103.5,66.5 104.5,66.5 105.5,66.5C 103.784,67.9708 101.784,68.9708 99.5,69.5C 99.9038,68.2436 100.571,67.0769 101.5,66C 101.164,64.9701 100.497,64.4701 99.5,64.5 Z"/></g>
<g><path style="opacity:1" fill="#989898" d="M 99.5,72.5 C 99.5,71.5 99.5,70.5 99.5,69.5C 101.784,68.9708 103.784,67.9708 105.5,66.5C 105.328,65.5084 105.662,64.8417 106.5,64.5C 107.209,63.596 108.209,63.2627 109.5,63.5C 109.5,64.8333 109.5,66.1667 109.5,67.5C 106.478,69.6778 103.145,71.3444 99.5,72.5 Z"/></g>
<g><path style="opacity:1" fill="#fdfdfd" d="M 106.5,64.5 C 108.337,64.6395 108.67,65.3061 107.5,66.5C 106.702,66.0431 106.369,65.3764 106.5,64.5 Z"/></g>
<g><path style="opacity:1" fill="#3e3e3e" d="M 111.5,68.5 C 111.737,69.791 111.404,70.791 110.5,71.5C 108.766,73.6832 107.766,76.3498 107.5,79.5C 107.043,80.2975 106.376,80.6309 105.5,80.5C 105.519,78.9397 105.852,77.4397 106.5,76C 106.167,75.5 105.833,75 105.5,74.5C 104.614,75.325 104.281,76.325 104.5,77.5C 97.3134,77.8245 90.3134,77.4912 83.5,76.5C 88.0323,76.8182 92.3656,76.4849 96.5,75.5C 97.5,75.5 98.5,75.5 99.5,75.5C 100.568,76.4345 101.901,76.7678 103.5,76.5C 103.5,75.5 103.5,74.5 103.5,73.5C 106.142,71.871 108.809,70.2044 111.5,68.5 Z"/></g>
<g><path style="opacity:1" fill="#161616" d="M 18.5,69.5 C 22.1709,92.0039 35.1709,105.504 57.5,110C 80.3619,111.08 96.3619,101.246 105.5,80.5C 106.376,80.6309 107.043,80.2975 107.5,79.5C 107.766,76.3498 108.766,73.6832 110.5,71.5C 108.487,87.5094 100.487,99.5094 86.5,107.5C 85.5033,114.134 85.17,120.8 85.5,127.5C 84.5,127.5 83.5,127.5 82.5,127.5C 82.5,125.5 82.5,123.5 82.5,121.5C 82.5,117.833 82.5,114.167 82.5,110.5C 79.5049,110.294 76.8383,110.96 74.5,112.5C 63.5406,114.452 52.8739,113.452 42.5,109.5C 41.0423,115.41 40.3757,121.41 40.5,127.5C 39.1667,127.5 37.8333,127.5 36.5,127.5C 36.8375,121.636 37.5042,115.803 38.5,110C 38.1667,108.833 37.8333,107.667 37.5,106.5C 24.5506,97.9351 17.2173,85.9351 15.5,70.5C 16.209,69.596 17.209,69.2627 18.5,69.5 Z"/></g>
<g><path style="opacity:1" fill="#c9c9c9" d="M 97.5,81.5 C 98.1859,82.8484 99.1859,84.015 100.5,85C 99.5,85.3333 98.5,85.6667 97.5,86C 82.6609,86.8276 67.9942,86.6609 53.5,85.5C 67.8372,85.6666 82.1705,85.4999 96.5,85C 97.3366,83.9887 97.67,82.8221 97.5,81.5 Z"/></g>
<g><path style="opacity:1" fill="#1a1a1a" d="M 97.5,81.5 C 97.67,82.8221 97.3366,83.9887 96.5,85C 82.1705,85.4999 67.8372,85.6666 53.5,85.5C 51.4178,84.4151 51.0844,82.9151 52.5,81C 67.6723,80.1723 82.6723,80.3389 97.5,81.5 Z"/></g>
<g><path style="opacity:1" fill="#7c7c7c" d="M 44.5,74.5 C 51.2192,76.4047 58.2192,77.0713 65.5,76.5C 58.6866,77.4912 51.6866,77.8245 44.5,77.5C 44.5,76.5 44.5,75.5 44.5,74.5 Z"/></g>
<g><path style="opacity:1" fill="#e7e7e7" d="M 60.5,72.5 C 60.5,73.5 60.5,74.5 60.5,75.5C 59.5,75.5 58.5,75.5 57.5,75.5C 57.5,74.5 57.5,73.5 57.5,72.5C 58.5,72.5 59.5,72.5 60.5,72.5 Z"/></g>
<g><path style="opacity:1" fill="#ececec" d="M 99.5,72.5 C 99.5,73.5 99.5,74.5 99.5,75.5C 98.5,75.5 97.5,75.5 96.5,75.5C 96.5,74.5 96.5,73.5 96.5,72.5C 97.5,72.5 98.5,72.5 99.5,72.5 Z"/></g>
<g><path style="opacity:1" fill="#f9f9f9" d="M 74.5,112.5 C 76.861,112.326 79.1944,111.993 81.5,111.5C 81.1872,115.042 81.5206,118.375 82.5,121.5C 82.5,123.5 82.5,125.5 82.5,127.5C 68.5,127.5 54.5,127.5 40.5,127.5C 40.3757,121.41 41.0423,115.41 42.5,109.5C 52.8739,113.452 63.5406,114.452 74.5,112.5 Z"/></g>
<g><path style="opacity:1" fill="#848484" d="M 82.5,121.5 C 81.5206,118.375 81.1872,115.042 81.5,111.5C 79.1944,111.993 76.861,112.326 74.5,112.5C 76.8383,110.96 79.5049,110.294 82.5,110.5C 82.5,114.167 82.5,117.833 82.5,121.5 Z"/></g>
</svg>
